<svg width="240" height="289" viewBox="0 0 240 289" fill="none" xmlns="http://www.w3.org/2000/svg">
<path d="M203.838 140.659C203.838 186.682 166.766 223.992 121.035 223.992C75.3045 223.992 38.2325 186.682 38.2325 140.659C38.2325 94.6347 75.3045 57.325 121.035 57.325C166.766 57.325 203.838 94.6347 203.838 140.659Z" fill="white"/>
<path d="M125.282 0L101.927 41.4014H139.082L125.282 0Z" fill="white"/>
<path d="M125.282 0L101.927 41.4014H139.082L125.282 0Z" fill="white"/>
<path d="M125.282 0L101.927 41.4014H139.082L125.282 0Z" fill="white"/>
<path d="M117.52 288.666L139.047 246.285L101.927 247.906L117.52 288.666Z" fill="white"/>
<path d="M117.52 288.666L139.047 246.285L101.927 247.906L117.52 288.666Z" fill="white"/>
<path d="M117.52 288.666L139.047 246.285L101.927 247.906L117.52 288.666Z" fill="white"/>
<path d="M7.16617 39.608L23.0902 84.3957L47.4661 56.3544L7.16617 39.608Z" fill="white"/>
<path d="M7.16617 39.608L23.0902 84.3957L47.4661 56.3544L7.16617 39.608Z" fill="white"/>
<path d="M7.16617 39.608L23.0902 84.3957L47.4661 56.3544L7.16617 39.608Z" fill="white"/>
<path d="M239.79 47.3501L193.222 56.8858L217.598 84.9272L239.79 47.3501Z" fill="white"/>
<path d="M239.79 47.3501L193.222 56.8858L217.598 84.9272L239.79 47.3501Z" fill="white"/>
<path d="M239.79 47.3501L193.222 56.8858L217.598 84.9272L239.79 47.3501Z" fill="white"/>
<path d="M0 235.584L47.466 233.036L27.5026 201.699L0 235.584Z" fill="white"/>
<path d="M0 235.584L47.466 233.036L27.5026 201.699L0 235.584Z" fill="white"/>
<path d="M0 235.584L47.466 233.036L27.5026 201.699L0 235.584Z" fill="white"/>
<path d="M223.144 250.244L208.398 205.054L183.296 232.448L223.144 250.244Z" fill="white"/>
<path d="M223.144 250.244L208.398 205.054L183.296 232.448L223.144 250.244Z" fill="white"/>
<path d="M223.144 250.244L208.398 205.054L183.296 232.448L223.144 250.244Z" fill="white"/>
</svg>
